<?xml version="1.0" encoding="UTF-8"?>
<svg id="Layer_1" data-name="Layer 1" xmlns="http://www.w3.org/2000/svg" viewBox="0 0 750 286.2">
  <defs>
    <style>
      .cls-1 {
        font-family: Aspekta-850, Aspekta;
        font-size: 65.64px;
      }

      .cls-1, .cls-2 {
        fill: #cd703c;
      }
    </style>
  </defs>
  <text class="cls-1" transform="translate(386.83 152.41)"><tspan x="0" y="0">DELICIOUS</tspan></text>
  <text class="cls-1" transform="translate(386.83 208.6)"><tspan x="0" y="0">PLANET</tspan></text>
  <path class="cls-2" d="M281.04,160.12H44.1c.17,1.79.37,3.57.61,5.34h273.46c.25-1.78.47-3.55.65-5.34h-37.78Z"/>
  <path class="cls-2" d="M84.88,172.25h-40.52c.87,4.71,1.98,9.34,3.31,13.88h267.57c1.33-4.54,2.44-9.17,3.31-13.88H84.88Z"/>
  <path class="cls-2" d="M309.53,192.93H49.86c.63,1.8,1.3,3.57,2,5.34h259.2c.7-1.77,1.37-3.54,2-5.34h-3.53Z"/>
  <path class="cls-2" d="M295.61,205.06H54.77c2.2,4.78,4.66,9.41,7.37,13.88h238.63c2.71-4.47,5.17-9.1,7.37-13.88h-12.54Z"/>
  <path class="cls-2" d="M122.44,225.74h-55.9c1.25,1.81,2.54,3.59,3.86,5.34h222.12c1.33-1.75,2.62-3.53,3.86-5.34H122.44Z"/>
  <path class="cls-2" d="M128.4,237.87h-52.5c4.27,4.94,8.88,9.58,13.8,13.88h183.51c4.91-4.3,9.52-8.94,13.8-13.88h-158.61Z"/>
  <path class="cls-2" d="M122.58,258.55h-24.48c2.5,1.86,5.06,3.64,7.67,5.34h151.37c2.62-1.7,5.18-3.48,7.67-5.34H122.58Z"/>
  <path class="cls-2" d="M126.32,270.68h-8.86c13.11,6.78,27.43,11.55,42.55,13.88,6.98,1.08,14.14,1.64,21.43,1.64s14.45-.56,21.44-1.64c15.12-2.33,29.45-7.09,42.55-13.88h-119.12Z"/>
  <path class="cls-2" d="M317.93,146.15c0-.81-.05-1.62-.06-2.43h-6.02c-.16.15-.33.29-.5.44-.12-.15-.23-.3-.36-.44h-63.52c-.16-4.01-.69-7.96-1.57-11.82l31.51-8.55-1.39-5.15-31.52,8.55c-.6-1.88-1.28-3.73-2.05-5.55-.76-1.8-1.6-3.55-2.51-5.26l27.94-16.3c-.71-1.12-1.61-2.72-2.45-4.75l-28.2,16.44c-2.11-3.27-4.52-6.36-7.22-9.23l23.43-23.46-3.78-3.77-23.46,23.49c-2.93-2.64-6.06-5-9.39-7.06l18.98-33.55c-.71-1.87-1.33-3.92-1.79-6.16-.08-.38-.15-.77-.21-1.15l-21.63,38.24c-1.36-.69-2.75-1.33-4.16-1.93-2.21-.94-4.46-1.74-6.74-2.42l7.95-31.21-5.17-1.32-7.96,31.22c-3.81-.8-7.7-1.25-11.65-1.35l-.95-71.95c-.68-.01-1.35-.05-2.03-.05-1.11,0-2.21.06-3.31.08l.95,72c-3.93.22-7.79.79-11.58,1.7l-8.62-31.69-5.15,1.4,8.65,31.77c-1.61.54-3.21,1.14-4.78,1.8-2.06.87-4.06,1.84-6,2.91l-37.38-62.2c-1.55.88-3.08,1.78-4.59,2.72l37.41,62.24c-3.24,2.15-6.3,4.6-9.13,7.34l-23.77-23.14-3.73,3.83,23.8,23.17c-2.61,2.96-4.92,6.12-6.94,9.49l-30.68-16.83,32.72,17.95c.33.18.59.41.81.68.43.55.64,1.24.56,1.93-.03.35-.14.69-.32,1.01-.48.89-1.4,1.39-2.34,1.39-.44,0-.88-.11-1.28-.33l-2.03-1.11c-.55,1.11-1.07,2.25-1.56,3.4-1.04,2.46-1.92,4.98-2.65,7.54l-31.87-7.87-1.28,5.18,31.92,7.88c-.63,3.21-1.01,6.48-1.15,9.79H47.69s0,0,0,0c-.6.51-1.15,1.02-1.67,1.53-.34.34-.68.67-.98,1v-.05c0-.27,0-.53.01-.8h0c0-.56.01-1.12.02-1.69h-.02c-.02.81-.06,1.62-.06,2.43h-2.82c-.04.97-.11,1.93-.13,2.91h8.24c.05-.05.1-.09.16-.14.24-.23.48-.45.74-.67.2.28.43.54.67.79,0,0,0,.01.01.02h268.95c-.02-.97-.09-1.93-.14-2.91h-2.74ZM234.3,143.72c-1.39-27.24-23.92-48.9-51.5-48.9s-50.11,21.66-51.5,48.9h-7.83c.31-7.07,1.86-13.94,4.61-20.45,2.99-7.07,7.27-13.42,12.73-18.88,5.46-5.46,11.8-9.73,18.88-12.73,7.32-3.1,15.1-4.66,23.11-4.66s15.8,1.57,23.12,4.66c7.07,3,13.42,7.27,18.88,12.73,5.45,5.45,9.74,11.81,12.73,18.88,2.75,6.51,4.29,13.37,4.61,20.45h-7.83Z"/>
  <polygon class="cls-2" points="40.7 149.05 41.05 149.05 40.7 149.04 40.7 149.05"/>
  <path class="cls-2" d="M50.28,149.05h.15v-.14s-.1.09-.15.14"/>
  <path class="cls-2" d="M45.04,145.4c0,.27,0,.54,0,.8v.05c.3-.33.64-.67.98-1-.05.05-.11.1-.16.15h-.81Z"/>
  <polyline class="cls-2" points="47.69 143.72 47.69 143.72 47.69 143.72"/>
  <path class="cls-2" d="M311.34,144.16c.17-.15.34-.29.5-.44h-.85c.12.14.24.29.35.44"/>
  <path class="cls-2" d="M130.13,114.91c.43.55.63,1.24.56,1.93.07-.69-.13-1.38-.56-1.93"/>
  <path class="cls-2" d="M320.25,145.4c0-.56-.02-1.12-.03-1.69h-2.36c.02.81.06,1.62.06,2.43h2.73c-.01-.25-.02-.5-.03-.75h-.38Z"/>
  <path class="cls-2" d="M109.6,30.14l.03.04c1.51-.94,3.05-1.84,4.59-2.72l-.04-.07-4.58,2.75Z"/>
  <path class="cls-2" d="M42.28,143.72c-.05.81-.08,1.62-.12,2.43h2.82c0-.81.05-1.62.06-2.43h-2.76Z"/>
  <path class="cls-2" d="M178.14,9.09v.67c1.11-.03,2.21-.08,3.32-.08.68,0,1.35.04,2.03.05v-.71s-5.35.07-5.35.07Z"/>
  <path class="cls-2" d="M288.52,80.15c1.72-5.8-.06-12.26-3.73-16.05.48-1.99.71-3.83.78-5.5.86,1.03,1.71,2.07,2.55,3.13,3.59,4.54,6.87,9.28,9.84,14.19l.34-.19c-11.48-18.97-27.44-34.94-46.42-46.41l-.17.3c1.25.76,2.49,1.53,3.73,2.33,8.45,5.5,16.22,11.88,23.23,19.05.32.7,1.01,2.51,1.18,5.23.08,1.31.04,2.93-.27,4.8-.34-.08-.68-.14-1.02-.18-7.46-.87-14.11,5.65-15.39,14.49-1.21,8.42.38,15.07,2.24,19.56l22.54-13.15c.21-.53.4-1.06.56-1.6"/>
  <path class="cls-2" d="M54.33,105.6c1.21-.77,2.55-1.43,3.99-1.97.1.33.22.66.36.97,2.98,6.9,11.95,9.4,20.25,6.09,6.81-2.72,11.43-6.59,14.47-10.08l-16.76-9.19-8.16-4.48c-4.96,1.89-8.81,6.15-10.1,10.65-1.98.59-3.71,1.31-5.2,2.09,3.34-9.18,7.64-17.94,12.86-26.2,7.07,2.94,16.06-.4,21.58-8.02,7.45-10.28,8.63-20.06,8.53-25.72-30.58,24.56-50.37,61.98-51.11,103.98h.01c.21-11.63,1.88-23.09,4.97-34.19.43-.61,1.74-2.3,4.3-3.93"/>
  <path class="cls-2" d="M300.64,80.53c1.69,3.07,3.27,6.21,4.72,9.41.07.74.14,2.88-.77,5.77-.44,1.37-1.04,2.73-1.79,4.07-.29-.19-.59-.36-.9-.52-6.72-3.37-15.19.49-19.42,8.36-7.91,14.74-3.25,26.73-3.25,26.73,0,0,18.24-3.86,25.41-13.55,3.61-4.86,4.14-11.54,1.99-16.36,1.14-1.72,1.99-3.39,2.63-4.95.15.4.29.79.43,1.19,1.35,3.82,2.73,7.73,4,11.69-2.89-11.31-7.21-22.06-12.73-32.05l-.33.19Z"/>
  <path class="cls-2" d="M93.4,100.61l31.33,17.18-31.33-17.18Z"/>
  <path class="cls-2" d="M51.17,148.25c-.25.22-.5.44-.74.67v.14h1.42s-.01-.01-.02-.02c-.24-.25-.46-.52-.67-.79"/>
  <path class="cls-2" d="M45.06,143.72c-.01.56-.01,1.12-.02,1.69h.81c.05-.05.12-.1.16-.15.52-.51,1.07-1.02,1.67-1.53h0s-2.63,0-2.63,0Z"/>
  <path class="cls-2" d="M65.91,79.45l-2.34-1.28-1.29,2.34c.71-1.29,2.33-1.77,3.63-1.06"/>
  <path class="cls-2" d="M287.96,81.74c-1.49,3.77-4.2,7.3-7.1,10.32l19.77-11.53c-.86-1.56-1.75-3.1-2.67-4.62l-10,5.83Z"/>
  <path class="cls-2" d="M63.35,84.13c-1.29-.71-1.77-2.33-1.06-3.63l-1.28,2.34,7.47,4.09-5.13-2.81Z"/>
  <polygon class="cls-2" points="68.48 86.94 68.48 86.94 76.64 91.42 68.48 86.94"/>
  <path class="cls-2" d="M298.3,75.72l-.34.19c.92,1.52,1.81,3.07,2.67,4.62l.33-.19c-.86-1.56-1.74-3.11-2.66-4.62"/>
  <path class="cls-2" d="M287.96,81.74l-22.54,13.14c.84,2.03,1.74,3.63,2.45,4.75l12.99-7.57c2.9-3.02,5.61-6.55,7.1-10.32"/>
  <path class="cls-2" d="M249.31,28.17c.81.47,1.61.95,2.41,1.43l.17-.3c-1.52-.92-3.07-1.8-4.63-2.66l-2.88,5.11c.05.25.11.51.16.77-.22.03-.44.06-.66.11l-10.08,17.81c.06.38.13.77.21,1.15.46,2.24,1.08,4.29,1.79,6.16l14.47-25.57c-.24-1.46-.57-2.8-.95-4"/>
  <path class="cls-2" d="M124.72,117.79h0l2.03,1.11c.41.23.85.33,1.28.33.95,0,1.86-.5,2.34-1.39.18-.33.28-.67.32-1.01.07-.69-.13-1.38-.56-1.93-.22-.27-.48-.5-.81-.68l-32.73-17.95c-.78,1.28-1.83,2.76-3.2,4.34l31.33,17.18Z"/>
  <path class="cls-2" d="M63.35,84.13l5.13,2.81c.63-.24,1.28-.44,1.94-.6,2.27-.55,4.72-.66,7.19-.48l-11.7-6.42c-1.29-.71-2.91-.24-3.62,1.06s-.24,2.92,1.06,3.63"/>
  <path class="cls-2" d="M77.61,85.86l-11.7-6.42,11.7,6.42Z"/>
  <path class="cls-2" d="M77.61,85.86c-2.47-.18-4.92-.07-7.19.48-.66.16-1.31.36-1.94.6l8.16,4.48,16.75,9.19c1.37-1.57,2.42-3.06,3.2-4.34l-14.87-8.16-4.11-2.25Z"/>
  <path class="cls-2" d="M320.25,145.4h.38c-.19-3.93-.51-7.82-1.02-11.68.31,3.3.54,6.63.61,9.99.01.56.02,1.12.03,1.69"/>
  <path class="cls-2" d="M195.23,8.11c.45.05.89.12,1.33.17-.45-.05-.89-.12-1.33-.17"/>
  <path class="cls-2" d="M181.41,7.37c-.09,0-.18,0-.26,0,2.22,0,4.43.06,6.62.17-2.11-.11-4.23-.17-6.36-.17"/>
  <path class="cls-2" d="M187.93,7.54c1.61.08,3.21.23,4.81.36-1.6-.14-3.2-.28-4.81-.36"/>
  <path class="cls-2" d="M247.9,25.5h0l-.43.77c-.27-1.23-3.14-1.09-3.6-2.19-.28-.69-.6-1.09-.94-1.31-.02-.01-.04-.02-.06-.03-.99-.61-2.03.31-2.43-.07-5.61-2.7-11.53-4.93-17.37-7.22-13.45-4.3-27.47-6.49-41.83-6.49-18.53,0-36.5,3.63-53.42,10.78-10.99,4.65-21.22,10.66-30.58,17.93-.38.3-.76.62-1.14.93.02.36.03.74.04,1.14,4.29-3.45,8.79-6.64,13.48-9.56l-.03-.04,4.58-2.75.04.08c18.96-10.78,40.73-17.14,63.92-17.7v-.67s5.33-.07,5.33-.07v.71c23.1.34,44.81,6.42,63.78,16.91l.64-1.14Z"/>
  <path class="cls-2" d="M320.23,143.72l-1.34-7.55c-.6-7.98-2.69-15.98-5.2-23.77,2.57,10.04,3.98,20.53,4.17,31.32h2.36Z"/>
  <path class="cls-2" d="M96.15,39.74c0-.4-.02-.78-.04-1.13-30.84,25.34-51.38,63.56-53.84,105.11h2.76c.74-42,20.53-79.42,51.11-103.98"/>
  <path class="cls-2" d="M243.87,24.09c.46,1.1,3.33.96,3.59,2.19l.44-.77c-1.63-.95-3.3-1.85-4.97-2.73.33.23.65.63.94,1.31"/>
  <path class="cls-2" d="M252.48,28.26l-.59,1.04c18.97,11.48,34.94,27.44,46.42,46.41l.5-.29c-11.74-19.03-27.61-35.31-46.33-47.16"/>
  <path class="cls-2" d="M127.84,19.74c16.92-7.16,34.89-10.78,53.42-10.78,14.35,0,28.37,2.18,41.83,6.49,5.84,2.29,11.76,4.52,17.37,7.22.39.38,1.44-.54,2.43.07-14.25-7.5-29.85-12.53-46.32-14.47-.45-.05-.89-.12-1.33-.16-.83-.09-1.66-.13-2.49-.2-1.6-.14-3.2-.28-4.81-.36h-.15c-2.2-.11-4.41-.16-6.63-.17-31.53.06-60.57,11.53-83.9,30.3,9.36-7.27,19.59-13.28,30.58-17.93"/>
  <path class="cls-2" d="M300.97,80.34c5.52,9.99,9.84,20.74,12.73,32.05,2.51,7.8,4.6,15.8,5.2,23.78l1.34,7.55c-.07-3.37-.3-6.69-.61-10-2.49-19.12-8.79-37.33-18.09-53.7l-.55.32Z"/>
  <path class="cls-2" d="M301.52,80.02c-.88-1.55-1.78-3.08-2.71-4.6l-.5.29c.92,1.52,1.8,3.07,2.66,4.62l.55-.32Z"/>
  <path class="cls-2" d="M247.9,25.5l-.64,1.14c1.56.86,3.11,1.74,4.62,2.66l.59-1.04c-1.5-.96-3.03-1.87-4.57-2.76"/>
  <path class="cls-2" d="M343.52,93.4c-8.25-3.44-17.26-1.08-20.34,5.78-.07.15-.13.29-.18.44-2.96-1.23-6.51-3.68-9.79-8.49-.05-.12-.1-.24-.15-.36-4.77-11.26-10.89-21.76-18.3-31.37,1.64.33,3.13.45,4.42.46.35,0,.69-.01,1.03-.02,2.9,4.62,9.16,7.87,15.45,7.25,12-1.19,24.67-14.86,24.67-14.86,0,0-7.9-10.16-24.62-10.93-8.92-.41-16.58,4.89-17.14,12.39-.01.16-.02.32-.02.47-3.24-.15-7.46-1.25-12.23-4.73-1.23-1.33-2.49-2.63-3.78-3.92-7.42-7.42-15.53-13.94-24.26-19.5,1.65-.26,3.08-.65,4.29-1.08.33-.12.65-.24.96-.37,4.3,3.35,11.3,4.27,17,1.53,10.87-5.22,18.09-22.4,18.09-22.4,0,0-10.9-6.84-26.87-1.85-8.53,2.67-13.91,10.27-11.87,17.5.04.15.09.3.14.45-3.06.96-7.36,1.37-12.96-.22-3.2-1.65-6.46-3.18-9.79-4.59-17.56-7.43-36.21-11.19-55.44-11.19s-37.88,3.76-55.44,11.19c-12.19,5.16-23.49,11.91-33.73,20.16-6.63.94-20.84,3.76-28.29,11.41-6.33,6.5-7.33,17.2-2.73,23.2-4.25,6.66-7.93,13.68-11.04,21.02-.15.34-.28.68-.43,1.02-.54-1.58-1.17-2.92-1.81-4.03-.17-.31-.35-.6-.53-.88,2.55-4.82,2.24-11.87-1.45-17-7.03-9.8-25.2-13.93-25.2-13.93,0,0-4.85,11.92,2.84,26.78,4.11,7.94,12.53,11.92,19.3,8.65.14-.07.28-.14.42-.22,1.48,2.84,2.62,6.99,2.04,12.76-3.65,11.72-5.74,23.84-6.25,36.22-1.06-1.31-2.12-2.37-3.11-3.21-.27-.23-.54-.44-.8-.65.75-5.41-1.96-11.92-7.17-15.48C18.5,113.99,0,116.33,0,116.33c0,0-.48,12.86,11.84,24.2,2.36,2.18,5.08,3.68,7.83,4.46,2.92.84,5.89.86,8.51,0,1.78-.57,3.39-1.55,4.75-2.94.11-.12.22-.23.32-.35.94.87,1.84,5.92,2.75,7.26h1.08s3.64.08,3.64.08v-3.64h.02C41.13,68.13,104.09,5.4,181.45,5.4s140.33,62.73,140.73,140h.02v.55c0,.06,0,.13,0,.19h0v2.91h3.98c-.82-1.62-1.54-7.59-2.09-9.82-.59-12.3-2.74-24.33-6.42-35.97,1.42.86,2.77,1.48,3.97,1.92.33.12.66.23.98.34,1.14,5.33,5.92,10.53,12.03,12.09,11.68,2.99,28.26-5.53,28.26-5.53,0,0-3.95-12.24-19.4-18.69"/>
  <path class="cls-2" d="M96.11,38.61c.38-.31.76-.63,1.14-.94-.38.29-.77.58-1.14.88v.06"/>
  <path class="cls-2" d="M322.21,146.15c0-.07,0-.13,0-.19v.19h0Z"/>
  <polygon class="cls-2" points="247.9 25.5 247.9 25.5 247.94 25.43 247.9 25.5"/>
  <path class="cls-2" d="M41.46,143.72C43.09,68.13,104.87,7.37,180.84,7.37c.11,0,.2,0,.31,0,.09,0,.17,0,.26,0,2.13,0,4.25.07,6.36.17h.15c1.61.08,3.21.23,4.81.36.83.07,1.66.12,2.49.2.45.05.89.12,1.34.16,65.32,7.34,116.95,59.77,123.05,125.46.5,3.86.83,7.75,1.02,11.68h1.56c-.4-77.26-63.37-140-140.73-140S41.13,68.14,40.72,145.4h.71c0-.56.02-1.12.03-1.69"/>
  <path class="cls-2" d="M242.94,22.77s-.04-.02-.06-.03c.02.01.04.02.06.03"/>
  <path class="cls-2" d="M242.94,22.77c1.67.88,3.33,1.78,4.97,2.73l.04-.07,4.65,2.63-.11.2c18.71,11.85,34.59,28.12,46.33,47.16l1.2-.7,2.69,4.61-1.18.69c9.3,16.37,15.6,34.58,18.09,53.7-6.11-65.68-57.74-118.11-123.05-125.45,16.48,1.93,32.08,6.97,46.32,14.47.02.01.04.02.06.03"/>
  <path class="cls-2" d="M96.11,38.61v-.06c.37-.3.76-.58,1.14-.88,23.32-18.77,52.37-30.23,83.9-30.3-.11,0-.2-.01-.31-.01-75.97,0-137.75,60.77-139.38,136.35h.82c2.46-41.55,23-79.77,53.84-105.11"/>
  <path class="cls-2" d="M192.74,7.9c.83.07,1.67.12,2.49.2-.83-.08-1.66-.14-2.49-.2"/>
  <path class="cls-2" d="M187.78,7.54c.05,0,.1,0,.15,0-.05,0-.1,0-.15,0"/>
  <path class="cls-2" d="M302.69,79.33l-2.69-4.61-1.2.69c.94,1.52,1.83,3.05,2.71,4.6l1.18-.69Z"/>
  <path class="cls-2" d="M252.59,28.06l-4.65-2.63-.04.07c1.54.89,3.06,1.81,4.57,2.76l.12-.2Z"/>
  <path class="cls-2" d="M320.66,146.15c.04.97.12,1.93.14,2.91h1.4v-2.91h-1.53Z"/>
  <path class="cls-2" d="M322.2,145.4h-.02c0,.18.02.37.02.55v-.55Z"/>
  <path class="cls-2" d="M40.71,146.15c0-.25.02-.5.02-.75h-.02v3.64h.35s.39.01.39.01h.59c.02-.97.09-1.94.14-2.91h-1.46Z"/>
  <path class="cls-2" d="M42.17,146.15c.04-.81.06-1.62.12-2.43h-.82c-.01.56-.02,1.12-.03,1.69h-.7c0,.25-.02.49-.02.75h1.46Z"/>
  <path class="cls-2" d="M320.66,146.15h1.53v-.19c0-.19-.01-.37-.01-.55h-1.56c.02.25.03.5.04.75"/>
</svg>